<?xml version="1.0" encoding="UTF-8" standalone="no"?>
<svg
   version="1.1"
   id="svg55"
   width="714"
   height="953.33331"
   viewBox="0 0 714 953.33331"
   xmlns="http://www.w3.org/2000/svg"
   xmlns:svg="http://www.w3.org/2000/svg">
  <defs
     id="defs59" />
  <g
     id="g61"
     transform="translate(-1.7406121e-5)">
    <g
       id="g1266">
      <path
         style="fill:#b9b9b9;fill-opacity:1;stroke-width:1.33333"
         d="m 309.33333,885.30398 c -17.96666,-0.50996 -52.16666,-1.34411 -76,-1.85365 -23.83333,-0.50955 -53.83333,-1.49578 -66.66666,-2.1916 -12.83334,-0.69583 -35.66172,-1.87682 -50.72974,-2.62442 -32.706669,-1.62274 -35.888851,-1.97726 -37.979266,-4.23124 -3.916648,-4.22308 -4.785193,-18.67746 -4.677724,-77.84693 0.05924,-32.61887 -0.519419,-76.83808 -1.28592,-98.26492 -1.599495,-44.71241 -2.451147,-281.19299 -1.191899,-330.9579 0.463906,-18.33333 1.218979,-47.43333 1.677943,-64.66666 1.092924,-41.03752 2.380288,-107.13322 2.882452,-147.99048 0.359687,-29.26506 0.640433,-32.79662 2.702884,-34 4.912687,-2.86639 18.017931,-15.1046 25.71051,-24.009516 4.43447,-5.133333 10.76327,-11.583333 14.06399,-14.333333 l 6.00132,-5 48.41273,-0.01319 c 26.627,-0.0073 57.11272,-0.697913 67.74605,-1.534803 29.37023,-2.311563 109.14781,-1.856183 152.66667,0.87144 27.01448,1.693183 65.60509,2.57072 139.61981,3.174908 90.06597,0.735216 102.53439,1.082963 104.3614,2.910658 3.02399,3.0251 3.05917,106.227186 0.0584,171.257646 -1.81377,39.30679 -2.20639,79.39218 -2.16779,221.33333 0.0269,98.80847 0.63003,184.51206 1.40287,199.33333 1.44277,27.66932 1.57892,126.0224 0.21119,152.5638 l -0.81922,15.89716 -12.04386,10.76951 c -6.62414,5.92324 -17.72414,15.4735 -24.66667,21.22282 L 586,885.57326 557.59051,884.8009 c -15.62523,-0.4248 -36.92523,-1.45285 -47.33334,-2.28457 -18.96061,-1.51515 -42.46244,-1.14823 -90.25717,1.40914 -36.53383,1.95481 -73.94469,2.42083 -110.66667,1.37851 z m 111.09208,-11.41707 c 24.43251,-1.60129 48.4177,-2.00496 99.03163,-1.66666 l 66.79039,0.4464 4.54294,-5.72872 c 2.49863,-3.1508 8.61519,-9.67858 13.59235,-14.50618 4.97716,-4.8276 8.85383,-8.973 8.61481,-9.21202 -0.23901,-0.23902 -14.51124,0.0457 -31.71605,0.63288 -17.20481,0.5871 -42.68148,0.81088 -56.61481,0.49729 -13.93334,-0.3136 -62.23334,-0.72073 -107.33334,-0.90475 -57.8166,-0.23589 -87.50516,-0.88041 -100.66666,-2.18537 -13.64956,-1.35336 -40.95138,-1.86099 -101.57916,-1.88864 l -82.91251,-0.0378 -3.75417,3.45223 c -2.06479,1.89873 -7.35416,6.17396 -11.75416,9.50052 -4.4,3.32656 -10.30358,8.16472 -13.11906,10.75149 l -5.119055,4.70322 11.119055,0.76826 c 6.11548,0.42256 24.91906,1.08748 41.78572,1.47763 16.86667,0.39015 45.66667,1.34729 64,2.127 102.43888,4.35667 158.30435,4.83969 205.09208,1.77325 z M 96.960753,854.85255 c 5.704917,-4.29776 13.578377,-10.70353 17.496587,-14.23505 l 7.124,-6.42095 -0.80832,-17.43162 c -0.44458,-9.58739 -1.50378,-30.33162 -2.35379,-46.09828 -0.85002,-15.76667 -1.6368,-54.46667 -1.74841,-86 -0.11162,-31.53333 -0.69076,-82.23333 -1.28699,-112.66666 -0.76346,-38.96927 -0.60588,-64.7969 0.53283,-87.33334 1.44463,-28.59099 2.65891,-152.80235 3.22105,-329.48713 l 0.19562,-61.487138 -16.32759,16.820478 -16.327595,16.82047 -0.10776,16 c -0.05927,8.8 -0.336992,17.2 -0.61717,18.66667 -0.28018,1.46666 -0.869448,43.76666 -1.309484,93.99999 -0.440036,50.23334 -1.514892,115.03333 -2.388568,144 -2.03827,67.57868 -2.498112,253.37025 -0.687247,277.67045 0.751571,10.0854 1.500879,45.1854 1.665129,77.99999 0.264408,52.82368 1.750427,106.99622 2.935042,106.99622 0.231048,0 5.087748,-3.51635 10.792666,-7.8141 z m 446.606437,-21.85608 81.5672,-0.32982 0.96477,-12.66667 c 1.62496,-21.33425 1.33236,-72.65206 -0.56257,-98.66666 -2.2916,-31.46047 -1.27838,-424.92789 1.18285,-459.33333 1.78104,-24.89717 2.72685,-167.660682 1.12789,-170.245223 -0.88152,-1.424863 -20.3338,-1.771699 -103.46648,-1.844817 -74.28721,-0.06533 -106.58837,-0.562304 -117.71418,-1.811081 -11.22315,-1.259702 -37.31392,-1.636792 -97.33334,-1.406763 -45.1,0.172849 -103.7106,0.398435 -130.24577,0.501301 -26.53517,0.102867 -48.51631,0.476431 -48.84696,0.830144 -0.33065,0.353712 -0.98115,80.143109 -1.44555,177.309779 -0.4644,97.16666 -1.50787,196.16666 -2.31882,219.99999 -0.90275,26.53145 -1.1467,71.50879 -0.62915,116 1.60327,137.82612 1.94513,150.90322 5.58897,213.79302 l 0.83779,14.45969 34.86308,-0.56998 c 49.26821,-0.80552 197.97175,1.9364 233.52975,4.30602 8.8,0.58644 26.2,0.8273 38.66666,0.53524 12.46667,-0.29205 59.37191,-0.67942 104.23386,-0.86084 z M 310.44685,629.87268 c -1.22089,-0.38015 -2.525,-1.48651 -2.89802,-2.45859 -0.37303,-0.97208 -1.03018,-35.28793 -1.46034,-76.25742 -0.43016,-40.96951 -1.47924,-94.10181 -2.3313,-118.07177 -1.37126,-38.57575 -1.28591,-46.75472 0.74296,-71.20506 1.26069,-15.1928 2.8741,-28.71062 3.58536,-30.03961 2.2975,-4.29294 27.82805,-9.17357 47.98694,-9.17357 h 13.05647 l 15.10221,-12.21051 c 8.30622,-6.71577 18.14098,-14.96993 21.85504,-18.34257 8.04914,-7.30919 34.43972,-27.82708 52.26086,-40.63123 l 12.78294,-9.1843 34.10168,0.7691 c 44.76326,1.00958 66.70526,2.98299 69.54952,6.25516 2.08879,2.40304 4.48066,17.23687 8.06396,50.01102 l 1.60355,14.66666 -16.63353,22.66667 c -9.14846,12.46666 -21.54151,29.56666 -27.54014,38 -11.68908,16.4334 -18.78232,24.83312 -43.12092,51.06316 -13.17233,14.196 -30.78693,34.80738 -40.32933,47.19058 -2.37755,3.08535 -2.43129,4.55663 -1.02909,28.16748 3.45708,58.21177 4.27261,122.04029 1.59364,124.7274 -0.84123,0.84377 -8.44456,1.91638 -17.11806,2.41486 -20.58292,1.18295 -126.9772,2.52904 -129.8244,1.64254 z m 74.21982,-9.74056 c 12.46666,-0.74698 32.10701,-1.7623 43.6452,-2.25624 l 20.97853,-0.89811 -0.63345,-20.15556 c -0.3484,-11.08556 -1.26868,-42.01129 -2.04506,-68.72385 -0.77638,-26.71256 -1.64014,-48.93808 -1.91948,-49.39004 -0.27932,-0.45196 -8.19938,-0.0397 -17.60013,0.91596 -10.48901,1.06637 -33.06061,1.68531 -58.42561,1.60209 -22.73334,-0.0745 -43.88334,-0.0811 -47,-0.0143 L 316,481.33332 v 45.11959 c 0,24.81577 0.39357,55.98496 0.8746,69.26484 l 0.87459,24.14523 3.45874,0.40184 c 9.78371,1.13666 43.44872,1.06626 63.45874,-0.13266 z m 48,-150.95442 c 9.89032,-1.00899 15.48532,-2.20427 17.18048,-3.67032 1.3826,-1.19574 8.54622,-9.37406 15.91918,-18.17406 7.37295,-8.8 19.74174,-22.81386 27.48619,-31.14193 18.49824,-19.89225 30.15872,-33.89892 41.78411,-50.1914 5.23265,-7.33333 15.09004,-20.91372 21.9053,-30.17862 6.81527,-9.26491 12.3914,-17.42068 12.3914,-18.12394 0,-0.7581 -13.43445,-1.63277 -33,-2.14849 -18.15,-0.47841 -39.6,-1.24629 -47.66666,-1.70643 L 474,313.00593 425.93425,360.83628 c -54.48016,54.21338 -80.80686,82.38178 -99.71213,106.68752 l -2.44453,3.14286 47.1112,0.004 c 25.91117,0.003 53.71121,-0.66966 61.77788,-1.49262 z m -98.547,-26.689 c 9.46752,-10.73123 24.6076,-27.94586 33.64462,-38.25476 9.03703,-10.3089 25.53703,-27.3279 36.66667,-37.81999 11.12964,-10.49209 29.41875,-28.07745 40.64247,-39.07858 11.2237,-11.00112 20.9735,-20.20198 21.6662,-20.44634 1.20365,-0.4246 0.7428,-20.91917 -0.89675,-39.87969 -0.86037,-9.94969 0.34137,-10.25263 -19.86533,5.00761 -17.0923,12.90822 -27.33106,21.34684 -41.31088,34.04782 -5.86667,5.33 -14.29416,12.59588 -18.72776,16.1464 -18.17719,14.55668 -44.81159,38.41381 -58.4079,52.31749 l -14.46898,14.79608 0.82922,25.67096 c 0.84179,26.05969 2.0977,48.21036 2.68934,47.43226 0.17897,-0.23538 8.07157,-9.20805 17.53908,-19.93926 z m 10.22565,-97.00372 c 9.61443,-8.591 13.63592,-12.96932 12.19423,-13.27621 -2.83202,-0.60283 -27.68374,2.26229 -34.73067,4.00405 l -5.52445,1.36547 -0.77319,8.21085 c -0.42525,4.51597 -1.16855,12.34873 -1.65179,17.40613 l -0.8786,9.19528 8.50958,-7.04363 c 4.68026,-3.874 14.96497,-12.81188 22.85489,-19.86194 z m 228.57357,-43.81832 c -0.4154,-2.75 -1.44038,-12.2 -2.27776,-21 -2.48434,-26.10824 -1.87005,-24.25344 -8.34074,-25.18367 -18.75643,-2.6964 -85.04979,-5.1615 -86.98788,-3.23461 -0.50622,0.50327 -0.10867,12.20327 0.88356,26 L 478,303.33333 l 20.66667,1.45826 c 11.36666,0.80206 32.89334,1.55206 47.83708,1.66667 l 27.17041,0.2084 z"
         id="path1280" />
      <path
         style="fill:#a3a3a3;fill-opacity:1;stroke-width:1.33333"
         d="m 308,885.19974 c -117.31816,-3.02847 -147.12696,-3.95219 -168.23115,-5.21319 -46.291285,-2.76596 -60.128733,-3.95873 -61.774878,-5.3249 -3.612756,-2.99832 -4.660743,-21.73522 -4.682389,-83.71614 -0.01196,-34.25337 -0.618784,-77.57886 -1.348491,-96.27886 -1.84054,-47.16707 -1.975073,-316.30825 -0.184283,-368.66666 0.80262,-23.46666 2.175242,-79.04313 3.050268,-123.50325 l 1.59096,-80.83658 3.456648,-2.06319 c 3.632987,-2.16844 15.059111,-13.16406 32.608705,-31.380079 l 10.48538,-10.88356 49.51462,-0.01319 C 199.71843,77.312894 230.7,76.636729 241.33333,75.817557 272.40607,73.423773 343.93679,73.992224 406,77.126155 c 42.31643,2.136803 77.04551,2.914846 142.12872,3.184138 70.64799,0.292317 86.52497,0.685282 88.33333,2.186298 1.99004,1.651822 2.20326,7.556421 2.19068,60.666659 -0.008,33.44052 -0.94814,79.55541 -2.17828,106.83674 -2.74324,60.83863 -3.02174,371.14626 -0.38525,429.25131 1.03601,22.8324 1.37849,58.64791 0.94007,98.30824 -0.60386,54.62483 -0.95983,62.80253 -2.86007,65.70267 -1.19369,1.82181 -7.3322,7.6831 -13.64112,13.02508 -6.30892,5.34198 -16.24369,13.76005 -22.07728,18.70684 -5.8336,4.94677 -12.17347,9.38741 -14.08863,9.86808 -4.10486,1.03025 -44.60794,-0.29483 -73.02884,-2.38918 -20.889,-1.53932 -37.66644,-1.21686 -110,2.11415 -23.83333,1.09754 -45.43333,1.92056 -48,1.82893 -2.56666,-0.0916 -22.96666,-0.639 -45.33333,-1.21637 z m 114.47777,-11.31793 c 23.19766,-1.62764 45.70503,-2.0136 97.18912,-1.66667 36.85014,0.24833 67.00014,0.0664 67,-0.40444 -1.2e-4,-0.47077 6.3307,-7.303 14.06848,-15.18273 l 14.06871,-14.32678 -19.73537,1.00508 c -10.85446,0.5528 -40.13538,0.8953 -65.06871,0.76112 -182.11276,-0.98005 -196.86264,-1.19181 -220.66667,-3.16796 -19.09473,-1.5852 -41.8659,-1.98262 -100.80693,-1.75941 l -76.14026,0.28835 -6.5264,5.32778 c -3.58953,2.93028 -9.84545,7.83083 -13.90207,10.89011 -4.05661,3.05928 -8.76391,7.04005 -10.46067,8.84617 l -3.085012,3.28384 7.127342,0.73616 c 3.92003,0.4049 22.72734,1.06303 41.794,1.46254 19.06667,0.3995 49.06667,1.36138 66.66667,2.1375 99.84455,4.40294 163.27089,4.94123 208.47777,1.76934 z M 99.155612,853.39775 c 14.023008,-10.49396 24.066038,-20.69501 23.030688,-23.39308 -0.38387,-1.00036 -1.03778,-8.31065 -1.45312,-16.24509 -3.23919,-61.87921 -3.90495,-84.34193 -4.06323,-137.09293 -0.099,-33 -0.6678,-81.9 -1.26396,-108.66666 -0.76375,-34.29107 -0.59741,-58.11912 0.56312,-80.66667 1.48527,-28.85653 2.27523,-111.23238 3.0887,-322.08339 l 0.27552,-71.416736 -16.1296,16.377346 -16.129602,16.37734 -0.900463,25.0394 c -0.495253,13.77166 -1.487806,80.83938 -2.205672,149.03938 -0.717866,68.2 -1.909478,131.8 -2.648026,141.33333 -1.160603,14.98129 -1.3462,78.4126 -0.579339,197.99999 0.503589,78.53174 4.05008,222.66667 5.478791,222.66667 0.30262,0 6.123906,-4.171 12.936193,-9.2689 z m 449.091268,-20.36992 76.91355,-0.27728 0.96256,-10.04196 c 1.64125,-17.12256 1.28417,-80.98661 -0.5743,-102.70861 -2.65042,-30.97873 -1.241,-407.80452 1.76043,-470.66665 1.43085,-29.96814 2.00512,-63.38095 1.74511,-101.5366 l -0.38756,-56.869943 -11.14899,-0.928831 c -6.13193,-0.510856 -52.03193,-0.753912 -102,-0.540124 C 451.18557,89.733078 419.80176,89.370564 408,88.215897 386.38136,86.100761 361.24756,85.86989 234.51524,86.622321 l -104.81811,0.622322 -0.85519,170.711007 c -0.47036,93.89105 -1.55686,195.91101 -2.41445,226.711 -2.35798,84.68598 0.85007,285.81236 5.34558,335.13798 l 0.8936,9.80467 L 166,829.14503 c 37.00229,-0.51536 49.38295,-0.37229 149.33333,1.72564 38.13334,0.8004 75.93334,1.91807 84,2.4837 8.06667,0.56561 27.56667,0.78593 43.33334,0.48957 15.76666,-0.29636 63.27776,-0.66361 105.58021,-0.81611 z M 311,629.83192 c -1.65,-0.37624 -3.09373,-1.39234 -3.20829,-2.258 -0.60696,-4.58624 -0.79644,-14.10776 -1.61002,-80.90727 -0.48676,-39.96666 -1.55864,-91.86666 -2.38194,-115.33333 -1.3095,-37.32461 -1.21482,-46.05677 0.75622,-69.74322 1.23923,-14.89211 2.5642,-27.88717 2.94439,-28.87792 1.70488,-4.44283 20.55873,-8.52025 44.49964,-9.62371 l 18,-0.82964 13.33333,-10.78698 c 7.33334,-5.93286 18.48896,-15.2911 24.79028,-20.7961 12.5942,-11.00262 44.16058,-35.32328 56.20456,-43.30341 l 7.66152,-5.07639 32.33848,0.74907 c 17.78618,0.41197 40.63942,1.4942 50.78498,2.40493 16.2485,1.45858 18.65502,1.98719 20.19678,4.4363 1.51807,2.41149 8.76447,53.71769 8.7099,61.66813 -0.0107,1.58825 -5.28851,9.98825 -11.72802,18.66667 -6.4395,8.67842 -17.66956,24.17894 -24.95566,34.44561 -13.15904,18.54206 -24.48355,33.05873 -32.76435,42 -2.37708,2.56666 -10.1638,10.96666 -17.30383,18.66666 -7.14002,7.7 -19.69438,22.1 -27.89856,32 l -14.91669,18 0.76905,12 c 1.24491,19.42504 4.01398,109.56964 3.78511,123.22085 -0.15855,9.45643 -0.7308,13.07544 -2.31916,14.66667 -1.59323,1.59609 -6.2536,2.3296 -19.06487,3.00066 -22.84586,1.19671 -122.8589,2.4687 -126.62285,1.61042 z m 77,-9.74826 c 9.9,-0.67444 27.77915,-1.63885 39.73143,-2.14313 l 21.73144,-0.91688 -0.682,-24.84517 c -1.83307,-66.77895 -3.66223,-112.92515 -4.50922,-113.75941 -0.51608,-0.50832 -5.13832,-0.27723 -10.27165,0.51354 -5.36033,0.82574 -32.1354,1.5054 -62.89965,1.59667 -29.46148,0.0873 -54.05936,0.65195 -54.66198,1.25456 -1.27384,1.27384 -1.13765,62.32205 0.23904,107.14669 0.8304,27.03777 1.22512,31.00373 3.13628,31.512 4.15688,1.10552 50.25167,0.86292 68.18631,-0.35887 z m 44,-150.84378 c 17.60228,-1.674 16.85267,-1.2195 31.73308,-19.23989 12.69503,-15.37385 27.21425,-31.74917 39.01276,-44 10.68965,-11.09947 23.78432,-27.55732 38.58749,-48.49811 4.76667,-6.74301 13.39216,-18.68942 19.16776,-26.54761 l 10.50108,-14.28761 -11.83441,-0.26911 c -6.50893,-0.14801 -28.16173,-0.96568 -48.11733,-1.81704 l -36.2829,-1.54794 -19.5324,18.4837 c -21.77381,20.6048 -74.69005,73.86292 -82.6166,83.15039 -2.81644,3.3 -10.05957,11.1 -16.09584,17.33333 -6.03626,6.23333 -15.81489,17.33333 -21.73026,24.66667 l -10.75523,13.33333 11.64807,0.66667 c 18.63969,1.06682 79.58805,0.16396 96.31473,-1.42678 z m -95.97248,-28.80869 c 27.42937,-31.59177 53.55108,-60.44769 58.80689,-64.96236 5.09199,-4.37393 19.97875,-18.58511 51.47935,-49.14309 l 21.64709,-20.99933 -1.14568,-22.71735 c -0.63012,-12.49453 -1.51357,-23.08525 -1.96324,-23.53491 -1.07986,-1.07988 -32.50802,22.80254 -50.18526,38.13603 -7.7,6.67909 -24.5,20.98823 -37.33334,31.79807 -12.83333,10.80984 -32.54158,28.64494 -43.79612,39.63355 l -20.46278,19.9793 0.84125,29.35612 c 0.73265,25.56581 1.83501,44.68944 2.57609,44.68944 0.1264,0 8.91755,-10.00596 19.53575,-22.23547 z M 316.23809,370.3311 c 0.96906,-0.9179 11.00495,-9.7679 22.302,-19.66667 17.21568,-15.08482 20.04363,-18.07085 17.4726,-18.44928 -3.81086,-0.5609 -28.30161,2.15992 -34.86036,3.87287 -4.6463,1.21347 -4.87978,1.55637 -5.62097,8.25568 -1.66359,15.03638 -2.47731,27.65629 -1.78325,27.65629 0.40045,0 1.52094,-0.751 2.48998,-1.66889 z m 256.65178,-69.954 c -0.43926,-3.50741 -1.46344,-12.97711 -2.27599,-21.04377 -2.37375,-23.5659 -2.23629,-23.04699 -6.32283,-23.86964 C 558.68448,254.33503 525.9296,252.21673 499,251.24122 l -24.33333,-0.88145 -0.012,3.8201 c -0.007,2.10107 0.69305,14.0851 1.55453,26.63118 l 1.56633,22.81105 18.77879,1.24556 c 10.32835,0.68507 31.90871,1.38979 47.95639,1.56605 l 29.17757,0.3205 -0.79863,-6.37711 z"
         id="path1278" />
      <path
         style="fill:#8c8c8c;fill-opacity:1;stroke-width:1.33333"
         d="m 310.66667,885.09947 c -85.13116,-1.93917 -146.76622,-3.80853 -167.33334,-5.07513 -11.73333,-0.72259 -30.87792,-1.89825 -42.54353,-2.61261 -11.665617,-0.71435 -21.803645,-1.89226 -22.528957,-2.61758 -3.898878,-3.89888 -4.830264,-20.12229 -4.906314,-85.46084 -0.04225,-36.3 -0.659482,-79.79999 -1.37163,-96.66666 -1.76962,-41.91211 -1.883612,-312.81125 -0.153448,-364.66666 0.770734,-23.1 1.717713,-59.4 2.104396,-80.66666 0.386684,-21.26667 1.112437,-58.16667 1.612785,-82 L 76.456356,122 l 7.678,-5.69974 c 4.2229,-3.13485 12.37022,-10.94287 18.105154,-17.351141 5.73494,-6.408275 13.01814,-13.893393 16.1849,-16.633598 l 5.75775,-4.98219 49.57559,-0.01171 c 27.26657,-0.0064 57.97558,-0.651472 68.24225,-1.433408 30.68443,-2.337005 101.35471,-1.75255 161.33333,1.334253 42.15304,2.169408 74.84004,2.885618 142.79544,3.128808 72.38891,0.259058 88.52251,0.642212 90.33334,2.145312 1.98684,1.6492 2.20404,7.377351 2.19934,57.999984 -0.003,31.354 -0.98494,78.2602 -2.22278,106.17008 -1.82919,41.24295 -2.19035,81.05835 -2.06218,227.33333 0.0893,101.99824 0.7426,188.66191 1.53766,203.99999 1.54308,29.76883 1.8526,104.94764 0.57916,140.66668 l -0.83188,23.33333 -7.49739,7.14777 c -7.04004,6.71178 -27.60147,24.12499 -38.58501,32.67716 l -4.91236,3.82492 -26,-0.85601 c -14.3,-0.47081 -35,-1.51603 -46,-2.32269 -20.902,-1.5328 -41.34967,-1.17907 -114,1.97217 -23.83334,1.03377 -44.23334,1.81276 -45.33334,1.73105 -1.1,-0.0817 -20.3,-0.56539 -42.66666,-1.07488 z m 102,-10.69994 c 8.15701,-0.92092 44.48205,-1.60282 93.56721,-1.75644 l 80.23388,-0.25111 5.65069,-6.52933 c 3.10788,-3.59114 9.60263,-10.33242 14.43279,-14.98063 l 8.78209,-8.45128 L 596,843.2779 c -10.63333,0.46595 -39.73333,0.755 -64.66667,0.64235 -24.93333,-0.11267 -78.03333,-0.30915 -118,-0.43664 -55.92778,-0.17842 -80.03792,-0.79186 -104.66666,-2.66304 -26.88288,-2.04244 -43.53102,-2.35228 -104.10938,-1.93758 l -72.10936,0.49364 -6.5573,5.35366 c -3.60651,2.94449 -9.87634,7.85669 -13.93296,10.91597 -4.05661,3.05928 -8.77381,7.0506 -10.48267,8.86959 l -3.107012,3.30726 4.482672,0.70455 c 2.46547,0.38749 29.38267,1.39929 59.81601,2.24843 30.43333,0.84913 73.93333,2.27485 96.66666,3.16826 54.41914,2.13866 136.26984,2.38163 153.33334,0.45518 z m -295.77939,-35.92652 5.55394,-5.80636 -1.12818,-12.66667 c -2.44798,-27.48492 -4.53746,-94.11598 -4.64111,-148 -0.0599,-31.16666 -0.6154,-77.36666 -1.23434,-102.66666 -0.80619,-32.95447 -0.64556,-55.64235 0.56641,-80 1.53846,-30.91926 2.0606,-86.0768 3.01176,-318.1533 l 0.31757,-77.486649 -16.1261,16.302619 -16.126102,16.30263 -0.902123,23.18402 c -0.496168,12.75121 -1.491869,79.56389 -2.212668,148.47261 -0.720798,68.90873 -1.929102,133.40873 -2.685118,143.33333 -2.687332,35.27798 -0.22178,317.32712 3.528509,403.64688 l 0.82268,18.93547 12.850463,-9.79578 c 7.067759,-5.38768 15.349739,-12.40864 18.404409,-15.60214 z m 433.35859,-5.33383 74.91254,-0.15443 0.981,-8.82572 c 1.66003,-14.9345 1.2551,-84.88529 -0.61228,-105.77015 -1.40029,-15.66118 -1.5926,-60.50916 -0.95473,-222.66667 0.43931,-111.68055 1.37281,-213.85555 2.07445,-227.05555 2.91995,-54.93236 3.71788,-100.14889 2.65078,-150.21135 L 628.71051,90.910624 620.13963,89.99276 C 615.42564,89.487935 569.81577,89.242406 518.78437,89.447139 453.02611,89.710955 421.14536,89.344252 409.33333,88.188202 388.11665,86.11171 360.70263,85.862993 233.16947,86.589934 l -103.4972,0.589936 -0.87613,175.41006 c -0.48187,96.47553 -1.53829,194.31006 -2.3476,217.41006 -0.92569,26.42168 -1.15297,73.4039 -0.61277,126.66666 1.28466,126.66515 1.95667,151.88141 5.61424,210.66666 l 0.78811,12.66667 45.54761,-0.45824 c 48.8144,-0.49111 192.90027,2.02908 218.21427,3.81677 8.43333,0.59556 29.73333,0.8246 47.33333,0.50896 17.6,-0.31562 65.71064,-0.64336 106.91254,-0.72829 z M 312.66667,629.70184 c -5.12442,-1.2596 -5.5102,-2.67586 -5.81051,-21.33043 -0.16265,-10.10428 -0.97625,-57.67142 -1.808,-105.70476 -2.11652,-122.22997 -2.11223,-118.23343 -0.15404,-143.33333 2.16855,-27.79619 2.21056,-27.98162 6.75559,-29.81499 7.7282,-3.1174 24.34025,-5.72619 41.1807,-6.46708 l 17.49707,-0.76978 12.36445,-10.14074 c 6.80046,-5.5774 17.82676,-14.85284 24.50292,-20.61208 12.32935,-10.63599 48.7852,-38.67506 59.1651,-45.50527 l 5.69328,-3.74631 31.64005,0.7783 c 44.93164,1.10525 68.38693,3.17456 71.08628,6.27148 1.50984,1.73222 3.18716,11.3074 5.87681,33.54862 l 3.76392,31.12452 -12.54348,16.80579 c -6.89892,9.24317 -18.5181,25.14317 -25.82041,35.33333 -16.94777,23.65008 -22.01176,29.91996 -38.65587,47.86088 -19.50984,21.02993 -22.737,24.6976 -38.71552,44 l -14.34853,17.33333 0.85123,13.33333 c 1.1892,18.62696 3.83677,109.60903 3.589,123.333 -0.23647,13.09681 -1.15427,14.57165 -9.56287,15.36689 -23.70271,2.24166 -129.56263,4.05212 -136.54717,2.3353 z M 390,620.08934 c 9.53333,-0.68061 26.86676,-1.64624 38.51873,-2.14582 l 21.18539,-0.90834 -0.79259,-27.51759 c -2.03501,-70.65227 -3.69094,-110.16368 -4.65752,-111.13026 -0.58076,-0.58076 -5.8255,-0.35114 -11.65497,0.51027 -6.60469,0.97597 -30.27903,1.60443 -62.82009,1.66763 -28.72159,0.0557 -52.72159,0.60237 -53.33334,1.21465 -1.3304,1.33155 -1.21908,68.54568 0.18078,109.15031 0.86766,25.16787 1.28193,29.00586 3.18549,29.51199 4.20859,1.11902 53.00827,0.87371 70.18812,-0.35284 z m 43.99557,-150.68419 13.32891,-1.26611 7.33776,-7.78961 c 4.03577,-4.28429 13.41371,-14.96557 20.83985,-23.7362 7.42616,-8.77061 19.47754,-22.32985 26.78084,-30.13165 7.30332,-7.80179 18.39888,-21.00179 24.65682,-29.33334 13.68965,-18.22584 43.72692,-59.62415 43.72692,-60.26585 0,-0.2517 -15.75,-0.9135 -35,-1.47068 -19.25,-0.55717 -40.7,-1.41401 -47.66667,-1.90408 l -12.66667,-0.89104 -19.25713,18.02503 c -19.67495,18.41613 -73.03127,72.14469 -84.76699,85.35837 -3.5822,4.03333 -10.83494,11.83333 -16.1172,17.33333 -5.28225,5.5 -14.53014,16 -20.55086,23.33334 l -10.94676,13.33333 9.1528,0.74528 c 13.40086,1.09119 85.62686,0.13425 101.14838,-1.34012 z M 335.469,441.45932 c 7.99205,-9.09737 16.61837,-18.99737 19.16961,-22 14.47031,-17.03056 33.21572,-36.85105 49.20419,-52.02613 9.98647,-9.47841 28.49737,-27.29792 41.13536,-39.59889 l 22.97815,-22.36541 -0.71568,-19.06778 c -0.78071,-20.80021 -1.52284,-27.73528 -2.96771,-27.7329 -1.849,0.003 -33.23063,24.3031 -48.67535,37.69129 -8.65466,7.50228 -20.4095,17.54049 -26.12185,22.30716 -5.71236,4.76667 -15.73127,13.13496 -22.26424,18.59621 -6.53299,5.46124 -21.38124,19.26124 -32.99612,30.66667 l -21.11799,20.73712 0.84571,32 c 0.46513,17.6 1.18261,34.31894 1.5944,37.15321 0.88029,6.05904 -1.43035,7.95569 19.93152,-16.36055 z m 8.40176,-95.45933 c 14.30863,-12.58317 14.94821,-13.35857 11.36817,-13.78198 -4.55844,-0.53912 -27.29708,2.01912 -34.06944,3.83302 -5.55126,1.48684 -5.72181,2.06336 -7.28225,24.61563 l -0.92256,13.33333 7.87223,-7.33333 c 4.32972,-4.03334 14.69496,-13.33334 23.03385,-20.66667 z m 229.46257,-41.71734 c 0,-1.3112 -0.8952,-9.5612 -1.98934,-18.33334 -1.09415,-8.77212 -1.99415,-18.72585 -2,-22.1194 -0.005,-3.39353 -0.76066,-6.77549 -1.67732,-7.51545 -2.16438,-1.74716 -40.60114,-4.30743 -70.33334,-4.68491 -22.20757,-0.28193 -23.32278,-0.17397 -23.11473,2.23762 0.12027,1.39361 0.95539,13.16242 1.85591,26.15293 l 1.6373,23.61909 18.1441,1.29028 c 9.97925,0.70966 31.49409,1.39083 47.81076,1.51374 27.68862,0.20856 29.66666,0.0645 29.66666,-2.16056 z"
         id="path1276" />
      <path
         style="fill:#767676;fill-opacity:1;stroke-width:1.33333"
         d="m 301.22223,884.8319 c -0.30556,-0.27577 -23.95556,-0.91068 -52.55556,-1.41089 -28.6,-0.50023 -63.4,-1.47871 -77.33334,-2.1744 -85.415925,-4.2649 -92.209803,-4.76206 -93.495185,-6.84184 -2.96401,-4.79588 -3.65091,-18.68415 -4.735114,-95.73812 -1.986883,-141.20704 -3.158938,-355.48487 -2.18427,-399.33333 0.50532,-22.73333 1.536432,-68.33333 2.291362,-101.33333 0.75493,-33 1.757281,-81.29999 2.227448,-107.33333 l 0.854848,-47.33333 5.520457,-4.55658 c 3.036252,-2.50612 13.620457,-12.84934 23.520454,-22.984942 l 18,-18.428365 L 174,77.44375 c 27.86667,0.04417 59.06667,-0.595255 69.33333,-1.420945 18.71722,-1.50532 109.99003,-2.047419 121.73896,-0.723047 23.40318,2.638071 101.50915,4.836445 180.702,5.086051 86.4971,0.272626 89.16308,0.356678 91,2.869028 2.65774,3.634949 2.5357,97.991813 -0.20705,160.078493 -2.70039,61.12809 -3.69693,267.1385 -1.77692,367.33332 2.5486,132.9979 2.85157,165.33504 1.86119,198.6554 l -0.97062,32.65539 -7.50712,7.15439 c -4.1289,3.93491 -13.10473,11.73997 -19.94628,17.3446 -6.84154,5.60461 -14.61222,11.99021 -17.26818,14.19021 l -4.829,4 -20.06516,-0.0953 c -11.03583,-0.0524 -33.36827,-0.89816 -49.62764,-1.87945 C 487.18024,880.9261 469.76828,881.14278 414,883.9666 c -23.41704,1.18572 -111.67247,1.86283 -112.77777,0.86524 z M 414,874.38953 c 8.30127,-0.94344 43.46023,-1.58151 93.15981,-1.69067 77.45506,-0.17013 79.88222,-0.25244 81.70267,-2.77045 1.03191,-1.4273 7.22485,-7.9951 13.76209,-14.5951 l 11.88591,-12 H 480.92191 c -116.39175,0 -138.14122,-0.31777 -168.95446,-2.46857 -29.45968,-2.05632 -47.38738,-2.39032 -107.34964,-2 l -71.98376,0.46857 -13.98369,10.8564 c -7.69103,5.97103 -15.40964,12.39054 -17.15246,14.26558 l -3.168757,3.40917 3.168757,0.66169 c 1.74282,0.36394 28.06877,1.35964 58.5021,2.2127 30.43333,0.85305 74.23333,2.29354 97.33333,3.20109 55.04071,2.16244 139.46355,2.40471 156.66667,0.44959 z m -297.05712,-35.91652 5.60955,-5.80636 -1.18317,-13.33334 c -2.37863,-26.80512 -4.51161,-96.06386 -4.66065,-151.33333 -0.084,-31.16666 -0.65431,-75.56666 -1.26724,-98.66666 -0.84715,-31.92673 -0.60564,-54.31177 1.00694,-93.33333 1.344,-32.52223 2.10294,-79.42784 2.07107,-128 -0.0277,-42.16666 0.16791,-116.71666 0.43462,-165.66666 0.2667,-48.95 0.16116,-88.988312 -0.23454,-88.974028 -0.3957,0.01428 -4.31946,4.280726 -8.71946,9.480988 -4.4,5.20026 -11.363276,12.37281 -15.473945,15.939 l -7.473947,6.48398 -0.895189,21.7017 c -0.492355,11.93593 -1.481662,78.70169 -2.198462,148.36836 -0.716798,69.66666 -1.965136,134.76666 -2.774082,144.66666 -1.375163,16.82941 -1.756358,126.72617 -0.70067,201.99999 0.92587,66.01747 3.470922,186.26392 4.308952,203.58575 l 0.883052,18.25241 12.828812,-9.77939 c 7.055849,-5.37865 15.353109,-12.39224 18.438359,-15.58574 z m 433.32289,-5.2519 74.93244,-0.0763 0.96431,-6.23907 c 1.71247,-11.07973 1.23357,-91.70738 -0.65875,-110.90573 -2.60809,-26.46036 -0.99382,-395.7766 2.0165,-461.33332 2.08788,-45.46875 2.89249,-162.033942 1.1306,-163.791336 -0.48267,-0.481431 -45.37656,-0.923439 -99.76423,-0.98224 -67.40896,-0.07288 -104.83517,-0.63739 -117.57387,-1.7734 -22.74382,-2.028315 -48.0153,-2.258384 -179.6461,-1.635543 l -102.33334,0.484214 0.0772,10.182453 c 0.0679,8.964142 -1.35638,246.781602 -1.99345,332.849112 -0.13028,17.6 -0.73126,56.3 -1.33552,86 -1.30015,63.90292 1.05772,230.9275 3.95085,279.86699 1.06646,18.03981 1.94503,33.09967 1.95239,33.46633 0.007,0.36667 19.6638,0.45794 43.68098,0.20283 47.05368,-0.49981 193.90132,2.07339 219.00094,3.83752 8.43333,0.59275 30.03333,0.81808 48,0.50075 17.96666,-0.31734 66.38626,-0.61131 107.5991,-0.6533 z M 312,629.58122 c -2.69961,-0.83557 -3.49372,-2.16128 -4.17693,-6.97314 -0.46399,-3.26779 -1.25884,-42.24143 -1.76636,-86.60809 -0.50754,-44.36667 -1.38718,-92.06667 -1.95478,-106 -1.58408,-38.88543 0.95694,-91.68598 4.69767,-97.61432 1.02296,-1.6212 4.11155,-3.53876 6.86351,-4.26125 9.48693,-2.49064 33.37281,-5.45776 43.936,-5.45776 h 10.59021 l 11.23868,-9.38567 c 6.18127,-5.16212 17.95133,-15.06692 26.15571,-22.01064 14.21594,-12.0316 46.96113,-37.20596 58.48796,-44.96529 5.29109,-3.56172 5.825,-3.63799 25.33333,-3.61863 18.05403,0.0179 39.02104,1.06595 69.59041,3.47846 6.04747,0.47725 11.97243,1.58216 13.16656,2.45533 1.67092,1.2218 3.09072,8.78089 6.16236,32.80879 3.44298,26.9325 3.74062,31.61904 2.16678,34.11742 -3.04838,4.8392 -47.41618,65.85468 -54.62414,75.12023 -3.70814,4.76666 -10.46726,12.56666 -15.02028,17.33333 -30.29896,31.72081 -59.69658,67.29539 -58.8602,71.22774 1.32156,6.21338 3.29275,53.57006 4.05955,97.5281 0.69445,39.81139 0.52989,46.99293 -1.10796,48.35223 -1.12507,0.93372 -10.15972,2.12076 -21.76416,2.85954 -26.6692,1.69786 -118.99412,2.90734 -123.17392,1.61362 z m 82,-9.51417 c 10.26667,-0.68193 26.99453,-1.64164 37.17305,-2.13267 l 18.50638,-0.89278 -0.7532,-28.18748 c -1.29306,-48.39001 -3.646,-110.68501 -4.20167,-111.24069 -0.29233,-0.29232 -6.12495,0.26681 -12.96137,1.24252 -8.90224,1.27056 -26.05235,1.68314 -60.42986,1.45378 -26.4,-0.17613 -49.59301,0.0172 -51.54001,0.42979 -3.50545,0.74272 -3.54893,0.89573 -4.45288,15.67192 -1.39425,22.79097 1.53797,122.47632 3.64191,123.81186 2.30909,1.46578 52.16106,1.36195 75.01765,-0.15625 z m 41.08543,-150.56161 c 13.81748,-1.34968 13.85428,-1.37696 33.49376,-24.83878 6.75245,-8.06667 18.83452,-21.75496 26.84901,-30.41842 18.46581,-19.96108 29.06533,-32.78236 40.98975,-49.58158 5.20533,-7.33334 15.04076,-20.91372 21.85649,-30.17863 6.81572,-9.2649 12.39223,-17.12038 12.39223,-17.45661 0,-0.33624 -15.15,-1.05183 -33.66667,-1.5902 -18.51667,-0.53837 -39.66667,-1.43281 -47,-1.98764 -7.33333,-0.55483 -14.04837,-0.65457 -14.92231,-0.22167 -4.9859,2.46986 -88.69766,85.33109 -104.49644,103.43475 -3.19984,3.66666 -10.93964,12.06666 -17.19957,18.66666 C 342.7502,446.54238 324,468.6315 324,469.94712 c 0,1.91483 90.6502,1.5544 111.08543,-0.44168 z m -103.6757,-23.50545 c 6.43972,-7.33333 12.06566,-13.63333 12.50207,-14 0.43643,-0.36667 4.37779,-4.86667 8.75859,-10 22.28253,-26.11021 38.06749,-42.3556 75.32961,-77.52687 6.23333,-5.88357 17.76904,-17.01925 25.63491,-24.74595 L 467.93649,305.67862 467.231,285.8393 c -0.38801,-10.91161 -1.00016,-21.78531 -1.36032,-24.16375 l -0.65485,-4.32445 -10.94124,8.00261 c -16.41878,12.00896 -37.62038,29.14071 -49.7037,40.16259 -5.91934,5.39936 -19.11934,16.70549 -29.33333,25.12472 -10.21399,8.41924 -28.37511,24.91924 -40.35803,36.66666 l -21.78713,21.35898 0.94997,36 c 0.5225,19.8 1.2477,36.50757 1.61158,37.12794 0.7686,1.3104 0.48901,1.59067 15.75578,-15.79461 z m 23.31068,-113.77117 c -5.61146,-0.52049 -26.70117,1.85864 -33.57632,3.78775 -5.64104,1.58282 -5.82594,2.1899 -7.26218,23.84174 l -0.91927,13.85833 23.23909,-20.525 23.2391,-20.52498 z m 219.36952,-27.94545 c -1.22825,-3.8699 -4.73438,-33.7554 -4.74594,-40.45346 -0.005,-3.39353 -0.76066,-6.76613 -1.67732,-7.49466 -3.32138,-2.63971 -91.86896,-7.25032 -93.33844,-4.86007 -0.40287,0.65532 -0.25715,5.99148 0.32382,11.85815 0.58099,5.86666 1.48335,17.35272 2.00526,25.52456 l 0.94892,14.85789 17.53021,1.26853 c 9.64163,0.6977 31.52065,1.36164 48.62008,1.47544 29.3024,0.19502 31.04636,0.0699 30.33341,-2.17638 z"
         id="path1274" />
      <path
         style="fill:#606060;fill-opacity:1;stroke-width:1.33333"
         d="m 265.33333,883.79317 c -97.56362,-2.55819 -184.770567,-6.6971 -186.946062,-8.87259 -3.409651,-3.40965 -4.15172,-17.31704 -5.242625,-98.25393 -2.523183,-187.20094 -2.788254,-384.25097 -0.611616,-454.66666 1.133412,-36.66666 2.422192,-96.36666 2.863954,-132.66666 l 0.803206,-66 4.23324,-3.22099 c 2.328282,-1.77155 12.78693,-11.97155 23.241443,-22.666668 l 19.0082,-19.445674 50.32513,-0.167977 c 27.67883,-0.09239 60.82513,-0.833678 73.65847,-1.647308 36.25944,-2.298844 95.20006,-1.812596 150.66666,1.242965 40.10936,2.209559 68.5513,2.804495 143.78211,3.007577 91.95717,0.248235 93.82031,0.304842 95.74579,2.908952 1.69634,2.294228 1.86045,12.911755 1.20545,77.989123 -0.41703,41.43333 -1.35079,84.63333 -2.07503,96 -1.89274,29.70609 -2.80193,373.6566 -1.06262,401.99999 1.51098,24.62284 2.1671,154.50966 0.87025,172.27901 l -0.79884,10.94568 -7.44795,6.807 c -13.6006,12.43018 -32.98144,28.58218 -39.03214,32.52942 l -5.96982,3.89447 -46.75328,-2.42821 c -47.64598,-2.47456 -72.3016,-2.35099 -125.13058,0.62721 -25.55559,1.44068 -86.05396,1.35961 -145.33334,-0.19473 z m 150,-9.17715 c 26.73039,-2.09076 87.87487,-2.88204 130.72556,-1.69175 l 38.72555,1.07571 14.77259,-15.33333 14.77258,-15.33334 -130.83146,-0.0972 C 375.02837,843.15557 346.3996,842.74301 316,840.82238 c -29.18833,-1.84409 -51.64761,-2.23219 -110.11899,-1.90283 l -73.45231,0.41376 -11.21435,8.57796 c -13.53882,10.35598 -24.045635,19.83931 -22.795966,20.57538 0.503223,0.29641 16.514946,0.92526 35.581616,1.39748 42.60928,1.05525 104.33419,3.26413 113.33333,4.05573 3.66667,0.32253 28.56667,0.99825 55.33334,1.50161 26.76666,0.50336 48.80517,1.02346 48.97446,1.15576 0.8705,0.68035 48.67578,-0.80669 63.6922,-1.98121 z M 98,854.7499 c 5.13333,-3.79721 12.82806,-10.29159 17.09939,-14.43193 l 7.76606,-7.52791 -0.80495,-7.39504 c -2.01667,-18.52721 -4.71055,-102.62372 -4.70018,-146.72837 0.006,-26.76667 -0.7031,-66.68737 -1.57644,-88.71269 -1.29978,-32.78021 -1.24279,-48.50471 0.31412,-86.66667 1.0461,-25.64134 1.95851,-77.82063 2.02758,-115.95397 0.0691,-38.13333 0.47303,-120.30309 0.89769,-182.59946 l 0.77211,-113.26612 -8.89769,9.89227 c -4.89373,5.44075 -12.266142,13.07238 -16.383138,16.95918 l -7.485448,7.06691 -0.870383,10.97362 c -0.47871,6.03548 -1.450113,69.17361 -2.158673,140.30694 -0.70856,71.13333 -1.866999,140.73333 -2.574309,154.66666 -2.347234,46.23821 -2.858172,116.48235 -1.362618,187.33333 0.812675,38.5 1.966032,102.1 2.563015,141.33333 1.215685,79.89399 2.316601,104.62512 4.577144,102.82152 0.804863,-0.64217 5.663387,-4.27439 10.79672,-8.0716 z m 527.73412,-22.70301 c 1.59477,-1.46683 1.80003,-86.93429 0.26588,-110.71357 -1.73668,-26.91847 -1.12237,-402.51562 0.73163,-447.33333 3.01525,-72.8889 3.77097,-109.63614 2.99284,-145.52648 l -0.8136,-37.52649 -4.78878,-0.79217 c -2.63381,-0.435694 -48.28876,-0.814254 -101.45542,-0.841244 -63.73656,-0.03236 -101.20875,-0.569956 -110,-1.578131 -9.39143,-1.077 -53.14664,-1.420672 -148,-1.162454 -74.06667,0.201629 -134.90129,0.589805 -135.18805,0.862613 -0.28676,0.272807 -0.70597,60.061386 -0.93159,132.863516 -0.22562,72.80214 -0.891,161.76751 -1.47862,197.70084 -1.10719,67.70472 -1.33831,202.84275 -0.48572,283.99999 0.43707,41.6037 2.47297,92.25504 4.76975,118.66667 l 0.81163,9.33333 h 68.2513 c 69.83579,0 164.40267,1.6224 188.2513,3.22965 17.49884,1.17932 235.68282,0.0908 237.06745,-1.18274 z M 312.66667,629.59912 c -3.65196,-0.87448 -4.0739,-1.5621 -4.8492,-7.90271 -0.46706,-3.81969 -1.36706,-46.11398 -2,-93.98732 -2.03992,-154.29242 -1.43674,-189.94964 3.31164,-195.76576 3.0502,-3.73608 23.16065,-7.73446 44.20422,-8.78872 15.11888,-0.75744 17.10006,-1.15427 21.33334,-4.27308 5.09662,-3.75487 26.34933,-21.49762 36.16724,-30.1941 8.5497,-7.57314 38.36461,-30.38434 50.88426,-38.93125 l 10.38486,-7.08952 h 17.41464 c 31.26645,0 82.89934,3.88368 85.44241,6.42675 1.10681,1.10681 8.81027,55.21881 8.98935,63.14468 0.0279,1.23096 -0.71843,3.03096 -1.65831,4 -1.68768,1.74005 -13.11785,17.36562 -39.32708,53.7619 -15.02232,20.86121 -19.85597,26.69071 -41.02653,49.47879 -8.10103,8.72 -22.38076,25.08625 -31.73274,36.36944 -14.36065,17.32618 -16.89701,21.05658 -16.318,23.99999 1.07598,5.46966 3.27479,59.55623 4.20923,103.53887 0.70645,33.25166 0.53756,40.31386 -0.99453,41.58538 -1.03943,0.86266 -11.14642,2.13418 -23.14015,2.91118 -26.79497,1.73588 -115.94399,2.99672 -121.29465,1.71548 z m 85.62181,-9.5957 c 13.04133,-0.73144 29.94439,-1.69482 37.56235,-2.14085 l 13.85081,-0.81097 -0.81021,-31.5258 c -1.34588,-52.36937 -3.45562,-107.20111 -4.15148,-107.89697 -0.36039,-0.36039 -5.96494,0.0257 -12.45456,0.85796 -7.00948,0.89893 -32.7044,1.5132 -63.297,1.5132 -39.73395,0 -51.74408,0.38072 -52.57636,1.66666 -1.21272,1.87375 -0.92075,118.386 0.3291,131.33333 l 0.80446,8.33334 h 28.51569 c 15.68363,0 39.18587,-0.59846 52.2272,-1.3299 z M 428.32541,470.1559 c 21.23824,-1.87454 19.83064,-1.03006 38.04104,-22.82258 5.51512,-6.6 18.18887,-20.93526 28.16386,-31.85616 21.78894,-23.85512 28.86973,-32.49481 43.82797,-53.47717 6.27348,-8.8 16.18795,-22.47134 22.03215,-30.38076 5.8442,-7.90942 10.39716,-14.58422 10.11769,-14.83289 C 570.22865,316.53767 556.5,315.92021 540,315.41419 c -16.5,-0.50602 -37.5,-1.41332 -46.66667,-2.01622 -12.99653,-0.8548 -17.40069,-0.70576 -20,0.67677 -4.36257,2.3204 -85.37621,82.70996 -100.70097,99.92525 -6.52801,7.33333 -16.39084,18.13524 -21.9174,24.00424 -5.52656,5.869 -14.06684,15.58741 -18.9784,21.59647 l -8.93011,10.92556 6.26344,0.48724 c 15.3109,1.19105 82.63503,0.60934 99.25552,-0.8576 z M 326,452.805 c 5.13333,-6.06829 19.61427,-22.68189 32.17987,-36.91913 21.99496,-24.92103 29.59669,-32.60559 85.31669,-86.24622 l 25.30468,-24.36036 -0.95477,-7.63964 c -0.52514,-4.20182 -1.0146,-14.23966 -1.08771,-22.30632 -0.0731,-8.06667 -0.60549,-15.41076 -1.18308,-16.3202 -1.57168,-2.47471 -30.28735,19.6031 -68.33459,52.53852 -6.91593,5.98674 -19.47442,16.71768 -27.90776,23.84652 -18.28992,15.46077 -30.13222,26.53645 -45.21405,42.28703 l -11.18907,11.6852 0.18763,9.64814 c 0.6072,31.22289 2.02733,64.97018 2.73111,64.90058 0.44974,-0.0445 5.01772,-5.04584 10.15105,-11.11412 z m 27.83589,-115.2651 6.50256,-5.96336 -13.16922,0.84375 c -20.74167,1.32889 -29.8065,3.32878 -31.1541,6.87322 -0.62224,1.63663 -1.56841,10.07311 -2.1026,18.74775 l -0.97125,15.77205 17.19603,-15.15503 c 9.45781,-8.33526 20.12217,-17.83854 23.69858,-21.11838 z m 220.38274,-32.78432 c -0.6751,-1.75923 -4.42111,-33.93076 -5.21131,-44.75559 l -0.34065,-4.66666 -18,-1.51464 c -9.9,-0.83306 -31.43112,-1.96968 -47.84692,-2.52583 l -29.84694,-1.0112 0.8381,5.85916 c 0.46094,3.22255 1.44114,15.10825 2.17821,26.41269 0.73708,11.30444 1.49105,20.69822 1.67551,20.87507 1.18321,1.13444 38.67656,2.87612 65.47802,3.04164 27.12448,0.16751 31.70131,-0.0851 31.07598,-1.71464 z"
         id="path1272" />
      <path
         style="fill:#494949;fill-opacity:1;stroke-width:1.33333"
         d="m 270.66667,883.94823 c -55.73826,-1.4777 -111.6713,-3.5993 -155.29084,-5.89036 -31.874053,-1.67414 -34.796707,-2.03166 -36.796481,-4.50129 -4.262449,-5.26389 -5.275585,-23.78861 -5.226086,-95.5566 0.02631,-38.13333 -0.551671,-81.93333 -1.284382,-97.33333 -2.080812,-43.73421 -1.723182,-288.38577 0.523322,-357.99999 1.053102,-32.63333 2.325138,-90.99551 2.826745,-129.6937 l 0.912015,-70.36038 4.167852,-2.82567 C 82.791133,118.23278 93.366667,108.19495 104,97.480614 l 19.33333,-19.480616 51.33334,-0.03138 C 203.67593,77.950888 237.30699,77.154305 252,76.13692 c 24.3954,-1.689209 112.98864,-1.346724 132.66667,0.512864 25.95658,2.452917 74.18156,3.688704 155.76253,3.991488 70.37149,0.26118 94.8294,0.751276 96,1.923682 2.19024,2.193608 1.87979,137.533586 -0.39019,170.101706 -1.14716,16.45864 -1.87065,77.62748 -2.30249,194.66666 -0.52052,141.07759 -0.26331,179.71164 1.48356,222.8371 2.41469,59.6122 2.66451,108.16731 0.75164,146.09671 l -1.32472,26.26714 -6.99016,6.59742 c -3.8446,3.62857 -14.61984,12.91854 -23.94499,20.64437 -14.0463,11.63729 -17.93465,14.18992 -22.66666,14.88031 -3.14152,0.45832 -27.91186,-0.37752 -55.04519,-1.85746 -46.21988,-2.52096 -51.22665,-2.5645 -79.33333,-0.69005 -37.45555,2.49792 -119.01034,3.35024 -176,1.83937 z m 148,-9.2825 c 23.00826,-2.04548 84.67884,-2.89332 126.80517,-1.74331 l 39.47184,1.07756 14.85511,-15.52647 c 8.35217,-8.72964 14.12832,-15.76065 13.19482,-16.06145 -0.91314,-0.29424 -10.96028,-0.12067 -22.32694,0.38577 -38.17862,1.70096 -237.49347,0.14366 -272.66667,-2.13042 -22.95556,-1.48418 -53.59171,-2.0575 -108.39325,-2.02848 l -76.39326,0.0404 -11.90957,9.12902 c -12.74271,9.76768 -24.479233,20.12739 -23.693021,20.9136 0.264141,0.26414 25.059751,1.10995 55.101341,1.87956 30.0416,0.76963 66.62109,2.03616 81.28776,2.81452 68.48927,3.63472 151.51867,4.19659 184.66667,1.24966 z M 98.849937,854.22766 c 6.132533,-4.75081 14.044353,-11.42789 17.581823,-14.83797 l 6.43176,-6.20014 -0.80369,-8.26145 c -2.10722,-21.66075 -4.70931,-105.55714 -4.70178,-151.59478 0.005,-28.23334 -0.69993,-67.09957 -1.56564,-86.36943 -1.27754,-28.43662 -1.21787,-43.75672 0.31678,-81.33333 1.03995,-25.46348 1.95051,-76.59724 2.02349,-113.63057 0.073,-37.03333 0.49196,-119.83333 0.93109,-184 l 0.79841,-116.666659 -4.73688,5.333333 c -2.60528,2.933334 -10.16772,10.862676 -16.805413,17.620766 l -12.068536,12.28743 -1.04473,44.37923 c -0.574601,24.40859 -1.114725,72.27924 -1.200273,106.37924 -0.163175,65.04193 -1.332657,118.78033 -4.134876,189.99999 -1.353604,34.40245 -1.348585,60.61549 0.02591,135.33333 0.937572,50.96667 2.300102,125.96667 3.027848,166.66666 0.727744,40.7 1.417282,78.65663 1.532305,84.34807 0.143769,7.11385 0.683139,10.16619 1.725737,9.76611 0.834132,-0.3201 6.534132,-4.46902 12.666668,-9.21983 z M 626.31044,832.73025 c 0.17075,-0.132 0.70937,-17.30035 1.19696,-38.15183 0.68407,-29.25457 0.35779,-46.28465 -1.42887,-74.57844 -2.14778,-34.01298 -2.20525,-51.96149 -0.79392,-247.99999 0.83679,-116.23333 2.12263,-220.63333 2.85743,-232 0.73481,-11.36666 1.39589,-49.37411 1.46908,-84.46101 0.11147,-53.4222 -0.17132,-63.987056 -1.73903,-64.979584 -1.04685,-0.66277 -45.65912,-1.209394 -101.20542,-1.240048 C 460.68545,89.282936 422.85653,88.748991 414,87.729086 404.56755,86.642858 361.07273,86.303037 265.33333,86.567565 190.9,86.773225 129.72613,87.203523 129.3914,87.523786 c -0.33473,0.320263 -0.71546,54.108424 -0.84608,119.529244 -0.13061,65.42083 -0.98773,168.14696 -1.90471,228.28029 -2.46771,161.8268 -0.2595,343.04545 4.72791,387.99999 l 0.73963,6.66667 69.61258,0.008 c 68.21815,0.008 197.89846,2.4998 199.22659,3.82793 0.59504,0.59504 224.58487,-0.50417 225.36312,-1.10594 z M 312.66667,629.60062 c -3.76395,-0.90178 -4.05315,-1.43934 -4.90052,-9.10886 -0.49528,-4.48279 -1.21152,-42.87731 -1.59166,-85.32115 -0.38013,-42.44384 -1.11433,-94.57062 -1.63154,-115.83729 -0.97752,-40.193 0.80797,-79.36419 3.9161,-85.91381 0.84752,-1.78593 3.34095,-3.75789 5.54095,-4.38213 9.6552,-2.73961 26.5224,-5.18037 41.15573,-5.95544 l 15.8224,-0.83805 18.56919,-15.45528 c 10.21304,-8.5004 21.99296,-18.35868 26.17759,-21.90727 11.05561,-9.37523 49.33369,-38.00413 54.12798,-40.48336 3.54902,-1.83527 8.00851,-1.99332 33.45432,-1.18568 34.12715,1.08317 69.71874,3.94697 71.52703,5.75527 0.69113,0.69113 3.01844,15.47688 5.1718,32.85721 l 3.9152,31.6006 -14.38271,19.62064 c -7.91048,10.79134 -20.16553,27.72064 -27.23346,37.62064 -13.80692,19.33928 -20.28907,27.13984 -42.68675,51.36884 -13.72123,14.84313 -37.02676,42.07053 -43.37008,50.66841 -2.88341,3.90825 -2.93548,4.52608 -1.62904,19.33333 2.19048,24.82711 4.47789,128.66714 2.89928,131.6168 -1.20732,2.2559 -4.03639,2.7194 -25.10623,4.1133 -28.39362,1.87843 -114.0816,3.19028 -119.74558,1.83328 z m 100,-10.27368 c 19.06666,-1.06406 35.19384,-1.94793 35.83816,-1.96414 1.754,-0.0441 -1.97582,-137.94491 -3.77982,-139.74891 -0.39044,-0.39045 -6.37824,-0.0133 -13.30622,0.8381 -7.56702,0.92993 -33.07095,1.548 -63.87664,1.548 h -51.28032 l -0.94535,8.14518 c -1.01236,8.72262 0.30835,119.83658 1.52365,128.18815 l 0.7276,5 30.21614,-0.0359 c 16.61886,-0.0197 45.81613,-0.90647 64.8828,-1.97052 z m 17.4908,-149.12171 17.49078,-1.67332 7.31555,-7.93263 c 4.02355,-4.36294 10.5074,-11.83262 14.40857,-16.59929 8.12556,-9.92827 12.64724,-14.99939 31.55871,-35.39353 14.82336,-15.98551 25.67068,-29.42588 39.06892,-48.40831 4.76667,-6.75335 13.87937,-19.31067 20.25047,-27.90514 l 11.58381,-15.62635 -37.58381,-1.5218 c -20.6711,-0.837 -42.56522,-1.92084 -48.65363,-2.40856 l -11.06981,-0.88675 -18.9167,18.40855 c -32.60145,31.72572 -70.86573,70.05197 -78.94737,79.07522 -4.26924,4.76667 -13.58495,14.96667 -20.70157,22.66667 -13.10367,14.17781 -33.29472,38.00923 -33.29472,39.29761 0,1.44703 90.5678,0.52663 107.4908,-1.09237 z M 328.50149,449.99999 c 6.3843,-7.33333 18.58374,-21.43333 27.10986,-31.33333 16.16538,-18.77023 42.90674,-45.81778 87.52992,-88.53207 19.19092,-18.36998 26.09386,-25.77721 25.47252,-27.33333 -0.46879,-1.17403 -1.18743,-11.8846 -1.597,-23.80127 -0.40956,-11.91666 -1.14075,-21.66666 -1.62487,-21.66666 -1.55947,0 -36.362,26.7401 -48.05859,36.92524 -6.23333,5.42784 -23.93272,20.49014 -39.33196,33.47178 -15.39925,12.98164 -36.54024,32.27417 -46.97998,42.87232 l -18.98138,19.26935 0.63088,6.73065 c 0.34699,3.70185 1.00567,20.40809 1.46375,37.12496 0.45807,16.71687 1.26624,30.21687 1.79595,30 0.52969,-0.21687 6.1866,-6.39431 12.5709,-13.72764 z m 16.81799,-104.51196 c 7.70763,-6.88158 14.21207,-13.02622 14.45433,-13.65477 0.24226,-0.62853 -1.25774,-0.87681 -3.33333,-0.55172 -2.0756,0.32509 -8.27381,0.9286 -13.77381,1.34112 -5.5,0.41253 -13.49814,1.42872 -17.77363,2.25821 -9.56527,1.85575 -9.79172,2.3344 -11.04831,23.35273 l -0.93865,15.70034 9.19977,-7.96698 c 5.05988,-4.38184 15.50602,-13.59736 23.21363,-20.47893 z m 228.61079,-43.13889 c -0.52156,-2.37463 -1.91924,-13.92463 -3.10595,-25.66667 l -2.15765,-21.34914 -9.03374,-0.8931 c -17.60398,-1.74036 -55.93553,-3.77357 -71.14202,-3.77357 h -15.4194 l 0.83137,7.66667 c 0.45727,4.21666 1.40095,16.00144 2.09709,26.1884 0.69614,10.18694 1.50442,18.76044 1.79618,19.0522 1.2669,1.26689 33.44617,2.72672 63.97646,2.90232 l 33.10594,0.19041 z m 767.42223,352.21388 c -894.235,-436.37535 -447.1175,-218.18767 0,0 z"
         id="path1270" />
      <path
         style="fill:#333333;fill-opacity:1;stroke-width:1.33333"
         d="m 317.07619,884.68907 c -0.22524,-0.19368 -19.90952,-0.73445 -43.74286,-1.2017 -48.3378,-0.94764 -61.36476,-1.37463 -129.33333,-4.23919 -62.234103,-2.62288 -63.633761,-2.75791 -65.909717,-6.3588 -3.402466,-5.38317 -4.622174,-28.95867 -4.322879,-83.55607 0.162812,-29.7 -0.139573,-66.29999 -0.671967,-81.33333 C 72.563043,692.96665 71.755036,618.56665 71.299864,542.66665 70.640752,432.75924 70.891299,391.5025 72.530633,339.99999 73.662728,304.43333 74.99586,241.0039 75.493149,199.04572 l 0.904162,-76.28762 4.875244,-3.22628 c 5.511896,-3.6476 18.994615,-16.82143 26.138755,-25.539905 2.62088,-3.198448 7.34862,-7.932241 10.50608,-10.519538 l 5.74083,-4.70418 54.50422,-0.537254 c 29.97732,-0.295489 66.50423,-1.286684 81.17089,-2.202653 32.4885,-2.028986 85.2612,-1.202004 156.66667,2.455068 40.23141,2.060476 69.07029,2.611508 133.34595,2.547876 45.10693,-0.04465 83.30682,0.329577 84.88864,0.831627 2.501,0.793789 2.93677,2.07929 3.34185,9.85831 0.78443,15.063979 0.14643,135.010279 -0.77097,144.945489 -3.39264,36.74155 -5.03948,359.96233 -2.20011,431.81168 2.29979,58.19532 2.77752,111.61629 1.27753,142.85497 l -1.47252,30.66667 -4.20518,4.4398 c -2.31286,2.44189 -10.15315,9.34189 -17.42287,15.33333 -7.26972,5.99144 -16.23385,13.44354 -19.92031,16.5602 l -6.70262,5.66667 -16.74636,-0.0156 c -9.2105,-0.009 -33.54636,-0.91677 -54.0797,-2.01824 -29.28657,-1.571 -42.64994,-1.70245 -62,-0.60988 -13.56666,0.76603 -35.16666,1.98487 -48,2.70853 -20.23574,1.1411 -87.10613,1.61409 -88.25714,0.62428 z m 105.59048,-9.89754 c 20.33808,-1.92611 65.32196,-2.4893 121.33333,-1.51907 l 42,0.72752 3.93784,-4.66667 c 2.16581,-2.56666 8.61581,-9.42576 14.33333,-15.24242 5.71752,-5.81667 10.3955,-11.13006 10.3955,-11.80752 0,-0.7383 -4.13976,-0.80894 -10.33334,-0.17635 -18.38882,1.87816 -243.67722,0.74723 -283,-1.42065 -51.13108,-2.81888 -90.43586,-3.50294 -143.07157,-2.49002 l -46.40489,0.89303 -12.92844,10.36641 c -7.11064,5.70152 -15.32843,12.48388 -18.26176,15.07191 l -5.333337,4.70549 4.666667,0.0565 c 16.56518,0.2008 131.10971,4.10816 136,4.63925 3.3,0.3584 23.4,1.03396 44.66667,1.50127 21.26666,0.46729 38.81084,0.98082 38.98705,1.14117 1.13327,1.03121 89.44132,-0.49464 103.01295,-1.77992 z m -317.8347,-24.96932 c 5.95758,-4.60418 12.4149,-10.25244 14.34961,-12.55171 3.95004,-4.69436 3.87647,1.00531 0.73063,-56.60385 -1.41227,-25.86244 -4.34062,-203.3913 -4.11278,-249.33333 0.0764,-15.4 0.73345,-40.6 1.46016,-56 0.72672,-15.4 1.69659,-108.08796 2.15526,-205.97323 l 0.83395,-177.97324 -17.26684,17.72479 -17.266837,17.72478 -0.97984,42.91512 c -0.538912,23.60332 -1.209504,79.21512 -1.490207,123.58179 -0.280701,44.36666 -1.188877,97.76666 -2.018167,118.66666 -1.830908,46.14304 -2.420154,167.17677 -1.106761,227.33333 0.815477,37.35082 3.539669,194.10023 3.797225,218.49158 L 84,865.64982 l 5,-3.7282 c 2.75,-2.05051 9.874385,-7.49525 15.83197,-12.09941 z m 461.36975,-16.04776 60.20173,-0.81543 1.02418,-20.81285 c 1.42233,-28.90416 1.04762,-64.27715 -0.92142,-86.98132 -1.25026,-14.4164 -1.58825,-67.23208 -1.36408,-213.16486 0.27287,-177.63402 1.0523,-235.02517 3.82076,-281.33333 1.03768,-17.35744 1.18475,-139.630132 0.16916,-140.645722 C 628.81297,89.701866 580.27773,89.208442 521.27596,88.92444 446.58856,88.564936 409.74704,87.899811 400,86.734958 c -10.79941,-1.29062 -43.24599,-1.480765 -141.92787,-0.831731 -70.36032,0.462762 -128.26032,1.174838 -128.66666,1.582388 -0.40634,0.407552 -0.78363,31.140015 -0.83841,68.294355 -0.17662,119.78168 -1.92435,294.30243 -3.41379,340.88668 -0.81939,25.62766 -1.08519,67.93691 -0.61147,97.33334 0.46089,28.59999 1.13037,71.19999 1.48774,94.66666 0.70035,45.98775 1.86027,86.90266 2.64597,93.33333 0.2688,2.2 0.86037,13 1.3146,24 0.45423,11 1.09417,20.92857 1.42209,22.06351 0.52822,1.82814 7.55285,2.03658 61.59201,1.82752 60.93454,-0.23574 138.20814,1.14914 180.99579,3.24377 28.74532,1.40719 114.47237,1.69249 192.20172,0.63967 z M 314,629.51337 l -5.33333,-0.84672 -0.80351,-9.33333 c -0.71843,-8.34505 -1.13849,-41.13128 -1.75103,-136.66667 -0.10586,-16.49999 -0.71061,-45.89999 -1.34405,-65.33333 -0.81452,-24.98921 -0.68495,-41.38366 0.44263,-56 2.2381,-29.01207 2.29868,-29.26441 7.55217,-31.45946 6.37552,-2.66385 27.00041,-5.73049 43.49521,-6.46712 l 14.25808,-0.63675 11.88052,-9.71833 c 6.5343,-5.34508 18.7369,-15.52499 27.11691,-22.62203 18.81923,-15.93798 54.59532,-42.8781 60.93932,-45.88853 4.14612,-1.96747 7.96881,-2.12104 32.12659,-1.29068 15.08126,0.51839 37.02049,1.78676 48.75382,2.81861 11.73334,1.03187 21.71915,1.88846 22.19068,1.90354 1.77822,0.0569 2.78307,5.52697 6.472,35.23148 l 3.79236,30.5374 -9.63528,12.79593 c -5.2994,7.03777 -16.46781,22.39594 -24.81868,34.12928 -19.57705,27.50664 -23.21454,32.00529 -45.28005,56 -10.11559,11 -25.69665,28.7 -34.6246,39.33333 l -16.23263,19.33333 0.77458,8 c 0.78808,8.13948 4.63429,115.87236 4.67348,130.90476 0.0137,5.28616 -0.6436,8.90317 -1.83458,10.09416 -1.33165,1.33164 -9.14866,2.30958 -27.66666,3.46125 -29.43587,1.83067 -107.1358,2.99125 -115.14395,1.71988 z m 112,-10.36199 c 7.33333,-0.4402 15.71821,-1.19337 18.63305,-1.6737 l 5.29974,-0.87336 -0.31058,-16.63549 c -1.13437,-60.76263 -1.9597,-84.7715 -3.81864,-111.08531 l -0.83242,-11.78315 -6.81891,0.84836 c -3.7504,0.4666 -32.71057,1.16355 -64.35595,1.54878 l -57.53704,0.7004 -0.84821,2.90104 c -1.04884,3.58717 0.41868,135.54682 1.52736,137.34071 0.80733,1.3063 81.77077,0.34992 109.0616,-1.28828 z m 5.74604,-148.97224 16.41271,-1.7254 7.70608,-8.5602 c 4.23834,-4.70812 11.41757,-13.00155 15.95382,-18.42986 4.53627,-5.42829 16.26894,-18.62829 26.07259,-29.33333 21.81044,-23.81573 25.37341,-28.22585 45.88687,-56.79703 8.95078,-12.46666 18.97498,-26.35669 22.27602,-30.86671 l 6.00188,-8.20006 -15.02801,-0.76201 c -8.2654,-0.41911 -25.528,-1.08196 -38.36133,-1.47299 -12.83334,-0.39104 -27.96596,-1.09293 -33.62808,-1.55974 l -10.29474,-0.84878 -15.70526,15.1269 c -32.98696,31.77217 -72.95635,71.70314 -82.66283,82.58339 -5.56088,6.23334 -14.12381,15.56836 -19.02873,20.74451 -10.92934,11.53369 -34.66946,39.55028 -34.67576,40.92216 -0.008,1.73057 91.34413,1.04309 109.07477,-0.82085 z M 329.33333,449.11478 c 37.69754,-43.3689 49.06448,-55.65438 73.19979,-79.11479 15.08857,-14.66667 36.29781,-35.36666 47.13164,-46 l 19.69785,-19.33333 -1.3068,-10 c -0.71874,-5.5 -1.32533,-16.21419 -1.34797,-23.80932 -0.0341,-11.43583 -0.36992,-13.68316 -1.95385,-13.07535 -5.4817,2.10352 -38.81698,28.28351 -62.18075,48.8339 -6.28471,5.52792 -20.37665,17.55077 -31.31543,26.71744 -10.93877,9.16666 -28.81621,25.46381 -39.72764,36.21587 l -19.83896,19.54922 0.80628,15.78412 c 0.44346,8.68126 1.19119,25.9573 1.66163,38.3912 l 0.85535,22.60708 2.8261,-3.39776 c 1.55435,-1.86878 6.7261,-7.8845 11.49276,-13.36828 z m -10.39957,-80.11479 c 2.49356,-2.38333 12.75356,-11.52907 22.8,-20.32387 C 351.78019,339.88134 360,332.20155 360,331.60993 c 0,-1.08199 -7.78048,-0.53687 -27.12564,1.9005 -11.79491,1.4861 -16.66803,3.00579 -17.53887,5.46955 -1.07361,3.03745 -2.73722,34.35334 -1.82496,34.35334 0.4892,0 2.92966,-1.95 5.42323,-4.33333 z m 255.37041,-62.85972 c 0.18,-0.18001 -0.53689,-7.18521 -1.5931,-15.56712 -1.0562,-8.3819 -2.39828,-19.73982 -2.98239,-25.23982 l -1.06201,-10 -8.35482,-0.92155 c -15.73476,-1.73556 -53.53696,-3.74512 -70.45026,-3.74512 h -16.90814 l 0.87688,8.33333 c 0.48228,4.58334 1.26187,16.30608 1.7324,26.05056 0.49704,10.29308 1.45742,18.08922 2.29188,18.60495 3.67316,2.27013 94.3287,4.60564 96.44956,2.48477 z"
         id="path1268" />
    </g>
  </g>
</svg>
